<svg xmlns="http://www.w3.org/2000/svg" viewBox="0 0 45 45" width="100%" height="100%">
  <g fill="#fff" fill-rule="evenodd" stroke="#000" stroke-width="1.5" stroke-linecap="round" stroke-linejoin="round">
    <path d="M8 12a2 2 0 1 1-4 0 2 2 0 1 1 4 0zM24.5 7.5a2 2 0 1 1-4 0 2 2 0 1 1 4 0zM41 12a2 2 0 1 1-4 0 2 2 0 1 1 4 0zM16 8.5a2 2 0 1 1-4 0 2 2 0 1 1 4 0zM33 9a2 2 0 1 1-4 0 2 2 0 1 1 4 0z"/>
    <path d="M9 26c17.5-1.5 55.5-1.5 70 2-1.5 7-1.5 10 0 10.5-3.5 1.5-9 2.5-14.5 2.5-6.5 1-13.5-1-15.5-1.5-2.5-.5-4 .5-5.5 1-3.5 1-8.5 1-8.5 1"/>
    <path d="M9 26c0 2 1.5 2 2.5 4 1 1.5 1 1 .5 3.5-1.5 1-1 2.5-1 2.5-1.5 1.5 0 2.5 0 2.5 6.5 1 15.5-1 23.5-1 7-1 9-1 11-1h7"/>
    <path d="M11.5 30c3.5-1 18.5-1 22 0M12 33.5c6-1 15-1 21 0"/>
    <path d="M12 37.5c6-1 13-1 18 0" fill="#000"/>
  </g>
</svg> 